<svg width="32" height="32" viewBox="0 0 32 32" fill="none" xmlns="http://www.w3.org/2000/svg">
<g clip-path="url(#clip0_542_584)">
<mask id="mask0_542_584" style="mask-type:luminance" maskUnits="userSpaceOnUse" x="0" y="0" width="32" height="32">
<path d="M24.5 0H7.5C3.35786 0 0 3.35786 0 7.5V24.5C0 28.6421 3.35786 32 7.5 32H24.5C28.6421 32 32 28.6421 32 24.5V7.5C32 3.35786 28.6421 0 24.5 0Z" fill="white"/>
</mask>
<g mask="url(#mask0_542_584)">
<path d="M24.5 0H7.5C3.35786 0 0 3.35786 0 7.5V24.5C0 28.6421 3.35786 32 7.5 32H24.5C28.6421 32 32 28.6421 32 24.5V7.5C32 3.35786 28.6421 0 24.5 0Z" fill="url(#paint0_linear_542_584)"/>
</g>
<path d="M12.0317 23.299C12.1687 23.1668 12.3522 23.0936 12.5426 23.0952C12.733 23.0969 12.9152 23.1732 13.0498 23.3079C13.1845 23.4425 13.2609 23.6247 13.2625 23.8151C13.2642 24.0055 13.191 24.1889 13.0587 24.3259L11.6062 25.7783C11.5392 25.8477 11.459 25.903 11.3704 25.941C11.2818 25.9791 11.1865 25.9991 11.0901 26C10.9937 26.0008 10.898 25.9824 10.8088 25.9459C10.7195 25.9094 10.6384 25.8555 10.5702 25.7873C10.502 25.7191 10.4481 25.638 10.4116 25.5488C10.3751 25.4595 10.3567 25.3639 10.3575 25.2675C10.3584 25.1711 10.3784 25.0758 10.4165 24.9872C10.4545 24.8986 10.5099 24.8184 10.5792 24.7514L12.0317 23.299ZM20.404 6.10832C21.2668 5.97438 22.1443 5.9646 23.0098 6.07927C23.7767 6.19547 24.5364 6.45109 25.0433 6.95798C25.5488 7.46342 25.8059 8.22158 25.9206 8.9899C26.0383 9.77856 26.0223 10.6834 25.8916 11.5955C25.6345 13.3951 24.9039 15.3834 23.662 16.6267L22.7571 17.5315L23.4325 22.2562C23.4483 22.3678 23.4378 22.4816 23.402 22.5885C23.3662 22.6953 23.306 22.7924 23.2262 22.872L20.3212 25.7768C20.2432 25.8548 20.1484 25.914 20.0442 25.9499C19.9399 25.9858 19.8288 25.9975 19.7193 25.984C19.6098 25.9706 19.5048 25.9324 19.4123 25.8723C19.3198 25.8123 19.2422 25.7319 19.1853 25.6374L17.4859 22.8038L16.6899 23.5982C16.5537 23.7344 16.3691 23.8109 16.1765 23.8109C15.9839 23.8109 15.7992 23.7344 15.663 23.5982L13.4843 21.4196C13.4149 21.3526 13.3596 21.2725 13.3215 21.1839C13.2834 21.0953 13.2634 21 13.2626 20.9036C13.2617 20.8072 13.2801 20.7115 13.3166 20.6223C13.3531 20.533 13.4071 20.452 13.4753 20.3838C13.5434 20.3156 13.6245 20.2617 13.7138 20.2251C13.803 20.1886 13.8987 20.1703 13.9951 20.1711C14.0915 20.1719 14.1868 20.192 14.2754 20.23C14.364 20.2681 14.4442 20.3234 14.5112 20.3928L16.1772 22.0587L22.635 15.6013C23.5719 14.6645 24.2226 13.0232 24.455 11.3907C24.5667 10.667 24.5765 9.93127 24.4841 9.20486C24.3868 8.56289 24.1994 8.16929 24.0149 7.98483C23.8319 7.80183 23.4383 7.61302 22.7948 7.51716C22.0688 7.42489 21.3335 7.43466 20.6103 7.54621C19.0808 7.76552 17.5426 8.35084 16.5839 9.19469L16.3994 9.36607L9.94159 15.8235L11.6062 17.4879C11.7425 17.6241 11.8192 17.8089 11.8194 18.0016C11.8195 18.1943 11.7431 18.3792 11.6069 18.5155C11.4707 18.6519 11.2859 18.7286 11.0932 18.7287C10.9005 18.7288 10.7156 18.6524 10.5792 18.5163L8.40048 16.3376C8.33284 16.2702 8.27918 16.19 8.24257 16.1018C8.20596 16.0136 8.18711 15.919 8.18711 15.8235C8.18711 15.728 8.20596 15.6334 8.24257 15.5452C8.27918 15.4569 8.33284 15.3768 8.40048 15.3093L9.195 14.5163L6.36261 12.8155C6.26772 12.7589 6.18702 12.6813 6.12665 12.5887C6.06628 12.4962 6.02784 12.391 6.01425 12.2814C6.00066 12.1717 6.01229 12.0603 6.04824 11.9558C6.08419 11.8513 6.14353 11.7564 6.22172 11.6783L9.12673 8.77349C9.20647 8.69394 9.30363 8.63402 9.41051 8.59848C9.5174 8.56294 9.63109 8.55274 9.74259 8.5687L14.4676 9.24407L15.3725 8.33922C16.6159 7.09451 18.6043 6.3654 20.404 6.10832ZM9.85298 21.1204C9.98996 20.9881 10.1734 20.9149 10.3638 20.9166C10.5543 20.9183 10.7364 20.9946 10.8711 21.1293C11.0057 21.2639 11.0821 21.4461 11.0837 21.6365C11.0854 21.8269 11.0122 22.0103 10.8799 22.1473L7.97489 25.0521C7.9079 25.1215 7.82776 25.1768 7.73915 25.2148C7.65055 25.2529 7.55525 25.2729 7.45882 25.2738C7.36239 25.2746 7.26675 25.2562 7.1775 25.2197C7.08825 25.1832 7.00716 25.1293 6.93897 25.0611C6.87078 24.9929 6.81685 24.9118 6.78034 24.8226C6.74382 24.7333 6.72544 24.6377 6.72628 24.5413C6.72712 24.4449 6.74715 24.3496 6.78522 24.261C6.82328 24.1724 6.87861 24.0922 6.94797 24.0252L9.85298 21.1204ZM18.5448 21.7464L19.9537 24.0921L21.9437 22.1023L21.473 18.8169L18.5448 21.7464ZM7.67422 18.9418C7.8112 18.8095 7.99465 18.7363 8.18507 18.738C8.37549 18.7396 8.55765 18.816 8.6923 18.9507C8.82695 19.0853 8.90333 19.2674 8.90499 19.4578C8.90664 19.6483 8.83344 19.8317 8.70115 19.9687L7.24864 21.4211C7.18164 21.4904 7.10151 21.5458 7.0129 21.5838C6.92429 21.6219 6.829 21.6419 6.73256 21.6427C6.63613 21.6436 6.5405 21.6252 6.45125 21.5887C6.36199 21.5522 6.2809 21.4983 6.21271 21.4301C6.14452 21.3619 6.0906 21.2808 6.05408 21.1916C6.01756 21.1023 5.99919 21.0067 6.00003 20.9103C6.00087 20.8138 6.0209 20.7185 6.05896 20.6299C6.09702 20.5413 6.15235 20.4612 6.22172 20.3942L7.67422 18.9418ZM19.0822 11.1032C19.3249 11.0963 19.5664 11.1382 19.7926 11.2263C20.0188 11.3144 20.2251 11.447 20.3991 11.6162C20.5732 11.7854 20.7116 11.9877 20.806 12.2113C20.9005 12.4349 20.9492 12.6752 20.9492 12.9179C20.9492 13.1607 20.9005 13.401 20.806 13.6246C20.7116 13.8481 20.5732 14.0505 20.3991 14.2197C20.2251 14.3889 20.0188 14.5215 19.7926 14.6096C19.5664 14.6977 19.3249 14.7396 19.0822 14.7327C18.6098 14.7194 18.1611 14.5223 17.8317 14.1834C17.5022 13.8445 17.3179 13.3906 17.3179 12.9179C17.3179 12.4453 17.5022 11.9913 17.8317 11.6525C18.1611 11.3136 18.6098 11.1165 19.0822 11.1032ZM7.90808 12.0472L10.2553 13.4561L13.1836 10.5265L9.89801 10.056L7.90808 12.0472Z" fill="#E9F7F1"/>
</g>
<defs>
<linearGradient id="paint0_linear_542_584" x1="16" y1="0" x2="16" y2="32" gradientUnits="userSpaceOnUse">
<stop offset="0.5" stop-color="#2EAD73"/>
<stop offset="1" stop-color="#248A5B"/>
</linearGradient>
<clipPath id="clip0_542_584">
<rect width="32" height="32" fill="white"/>
</clipPath>
</defs>
</svg>
